Normalized EMG Linear Envelopes
nRows=283
nColumns=4

endheader
time	 med_gas_r	  soleus_r	 tib_ant_r	
6.32056	  0.019179	  0.062562	  0.004166	
6.35383	  0.019482	  0.063428	  0.004220	
6.3871	  0.019898	  0.064518	  0.004276	
6.42036	  0.020400	  0.064817	  0.004333	
6.45363	  0.020877	  0.063954	  0.004387	
6.4869	  0.021109	  0.062890	  0.004431	
6.52016	  0.021075	  0.062438	  0.004458	
6.55343	  0.020909	  0.062838	  0.004474	
6.58669	  0.020662	  0.063613	  0.004489	
6.61996	  0.020358	  0.063903	  0.004503	
6.65323	  0.020051	  0.063560	  0.004507	
6.68649	  0.019736	  0.063525	  0.004497	
6.71976	  0.019387	  0.064291	  0.004481	
6.75302	  0.019100	  0.065734	  0.004441	
6.78629	  0.018979	  0.067150	  0.004386	
6.81956	  0.019035	  0.067658	  0.004337	
6.85282	  0.019256	  0.067770	  0.004314	
6.88609	  0.019562	  0.068056	  0.004333	
6.91935	  0.019823	  0.068707	  0.004381	
6.95262	  0.019976	  0.069456	  0.004424	
6.98589	  0.020093	  0.069365	  0.004438	
7.01915	  0.020218	  0.067524	  0.004419	
7.05242	  0.020313	  0.064542	  0.004387	
7.08569	  0.020312	  0.061661	  0.004364	
7.11895	  0.020260	  0.059776	  0.004359	
7.15222	  0.020174	  0.059160	  0.004385	
7.18548	  0.019996	  0.059426	  0.004431	
7.21875	  0.019667	  0.059988	  0.004457	
7.25202	  0.019285	  0.061113	  0.004434	
7.28528	  0.018914	  0.063160	  0.004368	
7.31855	  0.018592	  0.066057	  0.004301	
7.35181	  0.018369	  0.069129	  0.004267	
7.38508	  0.018280	  0.071394	  0.004286	
7.41835	  0.018306	  0.072174	  0.004355	
7.45161	  0.018398	  0.072043	  0.004451	
7.48488	  0.018477	  0.071759	  0.004536	
7.51815	  0.018469	  0.071708	  0.004576	
7.55141	  0.018402	  0.071899	  0.004565	
7.58468	  0.018318	  0.071772	  0.004518	
7.61794	  0.018230	  0.071016	  0.004447	
7.65121	  0.018168	  0.070396	  0.004362	
7.68448	  0.018195	  0.070475	  0.004282	
7.71774	  0.018360	  0.071062	  0.004206	
7.75101	  0.018637	  0.071618	  0.004128	
7.78427	  0.019009	  0.071396	  0.004044	
7.81754	  0.019441	  0.070606	  0.003938	
7.85081	  0.019834	  0.069910	  0.003787	
7.88407	  0.020136	  0.069411	  0.003564	
7.91734	  0.020302	  0.068780	  0.003243	
7.9506	  0.020325	  0.067703	  0.002830	
7.98387	  0.020260	  0.066530	  0.002415	
8.01714	  0.020120	  0.065857	  0.002178	
8.0504	  0.020011	  0.065846	  0.002361	
8.08367	  0.020056	  0.066413	  0.003261	
8.11694	  0.020343	  0.067055	  0.005237	
8.1502	  0.020921	  0.066802	  0.008706	
8.18347	  0.021985	  0.065387	  0.014052	
8.21673	  0.023790	  0.063579	  0.021552	
8.25	  0.026535	  0.061821	  0.031265	
8.28327	  0.030280	  0.060439	  0.042987	
8.31653	  0.034799	  0.059506	  0.056365	
8.3498	  0.039849	  0.059145	  0.070870	
8.38306	  0.045273	  0.059471	  0.086968	
8.41633	  0.051110	  0.060345	  0.105273	
8.4496	  0.057515	  0.061451	  0.124700	
8.48286	  0.064092	  0.062651	  0.143127	
8.51613	  0.070107	  0.063656	  0.158958	
8.5494	  0.075114	  0.064325	  0.170674	
8.58266	  0.079170	  0.064849	  0.178497	
8.61593	  0.082099	  0.065943	  0.186563	
8.64919	  0.083401	  0.067925	  0.197507	
8.68246	  0.083161	  0.070708	  0.211956	
8.71573	  0.082275	  0.074222	  0.228720	
8.74899	  0.081499	  0.078183	  0.246461	
8.78226	  0.081528	  0.082495	  0.265909	
8.81552	  0.082602	  0.087254	  0.287691	
8.84879	  0.084519	  0.092200	  0.311356	
8.88206	  0.086957	  0.096898	  0.336259	
8.91532	  0.089690	  0.100894	  0.362679	
8.94859	  0.092748	  0.104287	  0.389993	
8.98185	  0.095863	  0.106993	  0.416976	
9.01512	  0.099342	  0.108797	  0.442368	
9.04839	  0.103539	  0.109638	  0.462293	
9.08165	  0.108097	  0.109293	  0.475865	
9.11492	  0.112442	  0.108002	  0.484562	
9.14819	  0.116458	  0.106306	  0.491005	
9.18145	  0.120235	  0.104743	  0.497973	
9.21472	  0.123294	  0.103348	  0.505520	
9.24798	  0.124904	  0.102063	  0.511650	
9.28125	  0.125135	  0.101319	  0.516128	
9.31452	  0.124841	  0.101443	  0.520392	
9.34778	  0.124666	  0.102450	  0.526756	
9.38105	  0.125249	  0.104299	  0.533899	
9.41431	  0.126442	  0.106769	  0.540539	
9.44758	  0.127749	  0.109432	  0.544611	
9.48085	  0.128775	  0.111660	  0.544492	
9.51411	  0.129522	  0.112811	  0.541730	
9.54738	  0.130406	  0.113049	  0.539100	
9.58065	  0.131328	  0.112631	  0.538574	
9.61391	  0.132118	  0.112141	  0.541501	
9.64718	  0.132559	  0.112168	  0.547285	
9.68044	  0.133356	  0.113160	  0.554852	
9.71371	  0.134957	  0.115407	  0.564770	
9.74698	  0.137166	  0.118869	  0.576776	
9.78024	  0.139263	  0.122960	  0.587485	
9.81351	  0.140907	  0.126714	  0.593885	
9.84677	  0.142706	  0.129457	  0.596739	
9.88004	  0.145034	  0.131418	  0.598998	
9.91331	  0.147686	  0.133362	  0.603225	
9.94657	  0.150372	  0.135760	  0.610289	
9.97984	  0.153116	  0.138853	  0.620269	
10.0131	  0.156314	  0.142853	  0.632567	
10.0464	  0.160104	  0.147830	  0.647082	
10.0796	  0.163502	  0.153706	  0.661809	
10.1129	  0.166444	  0.160234	  0.674880	
10.1462	  0.169936	  0.166977	  0.687071	
10.1794	  0.174751	  0.173506	  0.699403	
10.2127	  0.180713	  0.179171	  0.713687	
10.246	  0.185959	  0.183862	  0.731278	
10.2792	  0.188905	  0.187763	  0.752515	
10.3125	  0.189201	  0.190482	  0.776214	
10.3458	  0.187403	  0.191867	  0.800198	
10.379	  0.184736	  0.191992	  0.821933	
10.4123	  0.182011	  0.191563	  0.843009	
10.4456	  0.179644	  0.192120	  0.865879	
10.4788	  0.178966	  0.194019	  0.890278	
10.5121	  0.180702	  0.196391	  0.913084	
10.5454	  0.184697	  0.198520	  0.932289	
10.5786	  0.190391	  0.200316	  0.946490	
10.6119	  0.197645	  0.201929	  0.954950	
10.6452	  0.205795	  0.203446	  0.959124	
10.6784	  0.213200	  0.204613	  0.962961	
10.7117	  0.217658	  0.205338	  0.969697	
10.745	  0.219161	  0.206044	  0.980691	
10.7782	  0.219143	  0.206928	  0.992267	
10.8115	  0.217573	  0.208043	  0.998968	
10.8448	  0.213769	  0.209497	  0.999524	
10.878	  0.208256	  0.210828	  0.993824	
10.9113	  0.202361	  0.211979	  0.981204	
10.9446	  0.197543	  0.212518	  0.962486	
10.9778	  0.193871	  0.212824	  0.942310	
11.0111	  0.191527	  0.213226	  0.926686	
11.0444	  0.191724	  0.212836	  0.917876	
11.0776	  0.194785	  0.211290	  0.913065	
11.1109	  0.199844	  0.208438	  0.910054	
11.1442	  0.206053	  0.205402	  0.908483	
11.1774	  0.212727	  0.203535	  0.907636	
11.2107	  0.218313	  0.203580	  0.910438	
11.244	  0.220745	  0.205812	  0.914708	
11.2772	  0.220574	  0.209722	  0.915284	
11.3105	  0.219793	  0.214241	  0.910842	
11.3437	  0.219178	  0.218415	  0.902501	
11.377	  0.218347	  0.221352	  0.892603	
11.4103	  0.217802	  0.222507	  0.885397	
11.4435	  0.218426	  0.222557	  0.883010	
11.4768	  0.220204	  0.222288	  0.882011	
11.5101	  0.222509	  0.222073	  0.877520	
11.5433	  0.226419	  0.222492	  0.867662	
11.5766	  0.232487	  0.224315	  0.850740	
11.6099	  0.239780	  0.226813	  0.827623	
11.6431	  0.246800	  0.228642	  0.802800	
11.6764	  0.254518	  0.229045	  0.783942	
11.7097	  0.265057	  0.227830	  0.778131	
11.7429	  0.279249	  0.225181	  0.787125	
11.7762	  0.297239	  0.222183	  0.808928	
11.8095	  0.317667	  0.220057	  0.837128	
11.8427	  0.337236	  0.218762	  0.864435	
11.876	  0.350888	  0.217493	  0.882143	
11.9093	  0.357254	  0.215803	  0.887659	
11.9425	  0.359604	  0.214422	  0.884831	
11.9758	  0.360914	  0.213894	  0.879070	
12.0091	  0.361573	  0.213362	  0.873856	
12.0423	  0.359264	  0.212394	  0.868165	
12.0756	  0.354329	  0.211386	  0.861118	
12.1089	  0.350766	  0.210605	  0.851133	
12.1421	  0.350677	  0.210111	  0.837417	
12.1754	  0.353328	  0.209785	  0.819912	
12.2087	  0.359989	  0.209663	  0.800212	
12.2419	  0.371555	  0.210545	  0.783987	
12.2752	  0.388288	  0.211936	  0.771401	
12.3085	  0.409681	  0.213332	  0.760966	
12.3417	  0.434376	  0.214941	  0.749596	
12.375	  0.459113	  0.216864	  0.736583	
12.4083	  0.479890	  0.219945	  0.722079	
12.4415	  0.496046	  0.224535	  0.707898	
12.4748	  0.508348	  0.229438	  0.696237	
12.5081	  0.518931	  0.232688	  0.688099	
12.5413	  0.527412	  0.233513	  0.683570	
12.5746	  0.530676	  0.231427	  0.681788	
12.6079	  0.530490	  0.225714	  0.680007	
12.6411	  0.530196	  0.217441	  0.675152	
12.6744	  0.527768	  0.208755	  0.664401	
12.7077	  0.515870	  0.201189	  0.643480	
12.7409	  0.495569	  0.194529	  0.613551	
12.7742	  0.470560	  0.188114	  0.577943	
12.8075	  0.441315	  0.181294	  0.541106	
12.8407	  0.409934	  0.173612	  0.506863	
12.874	  0.379515	  0.164967	  0.477316	
12.9073	  0.350083	  0.155569	  0.454335	
12.9405	  0.320437	  0.146726	  0.438277	
12.9738	  0.288233	  0.139412	  0.424913	
13.0071	  0.251926	  0.133031	  0.410602	
13.0403	  0.215856	  0.127299	  0.396727	
13.0736	  0.183957	  0.122542	  0.383035	
13.1069	  0.157876	  0.118669	  0.368684	
13.1401	  0.137611	  0.114979	  0.352007	
13.1734	  0.122336	  0.110410	  0.332339	
13.2067	  0.110699	  0.104927	  0.310758	
13.2399	  0.101401	  0.099668	  0.289674	
13.2732	  0.093985	  0.095172	  0.270711	
13.3065	  0.088500	  0.091114	  0.253501	
13.3397	  0.085090	  0.087435	  0.238180	
13.373	  0.083603	  0.084135	  0.223779	
13.4062	  0.083108	  0.080615	  0.209662	
13.4395	  0.082670	  0.076195	  0.196452	
13.4728	  0.080692	  0.071405	  0.184684	
13.506	  0.076965	  0.066980	  0.174462	
13.5393	  0.072743	  0.063493	  0.165427	
13.5726	  0.068805	  0.061284	  0.157011	
13.6058	  0.064989	  0.060317	  0.148618	
13.6391	  0.061085	  0.060317	  0.139791	
13.6724	  0.057402	  0.060748	  0.130546	
13.7056	  0.054117	  0.061180	  0.121551	
13.7389	  0.051208	  0.061282	  0.113151	
13.7722	  0.048977	  0.061115	  0.105599	
13.8054	  0.047264	  0.060776	  0.097989	
13.8387	  0.045670	  0.060322	  0.089419	
13.872	  0.043922	  0.059788	  0.079810	
13.9052	  0.041764	  0.059183	  0.069632	
13.9385	  0.039059	  0.058607	  0.059617	
13.9718	  0.036213	  0.058027	  0.050557	
14.005	  0.033602	  0.057365	  0.042431	
14.0383	  0.031324	  0.056570	  0.035108	
14.0716	  0.029480	  0.055648	  0.028855	
14.1048	  0.028145	  0.054586	  0.023679	
14.1381	  0.027251	  0.053556	  0.019211	
14.1714	  0.026780	  0.052665	  0.015266	
14.2046	  0.026573	  0.051941	  0.011953	
14.2379	  0.026486	  0.051440	  0.009313	
14.2712	  0.026500	  0.051368	  0.007375	
14.3044	  0.026697	  0.051952	  0.006104	
14.3377	  0.027023	  0.053366	  0.005398	
14.371	  0.027294	  0.055593	  0.005162	
14.4042	  0.027510	  0.058405	  0.005356	
14.4375	  0.027692	  0.061238	  0.005973	
14.4708	  0.027648	  0.063331	  0.007016	
14.504	  0.027334	  0.064156	  0.008434	
14.5373	  0.026930	  0.063714	  0.010102	
14.5706	  0.026448	  0.062045	  0.011771	
14.6038	  0.026015	  0.059354	  0.013042	
14.6371	  0.025838	  0.056223	  0.013682	
14.6704	  0.025979	  0.053216	  0.013938	
14.7036	  0.026454	  0.050632	  0.013912	
14.7369	  0.027137	  0.048612	  0.013452	
14.7702	  0.027883	  0.047038	  0.012323	
14.8034	  0.028597	  0.045618	  0.010800	
14.8367	  0.029199	  0.044230	  0.009215	
14.87	  0.029641	  0.042935	  0.007781	
14.9032	  0.029819	  0.041934	  0.006630	
14.9365	  0.029858	  0.041607	  0.005807	
14.9698	  0.029898	  0.042138	  0.005291	
15.003	  0.029932	  0.043450	  0.005025	
15.0363	  0.029885	  0.045357	  0.004914	
15.0696	  0.029608	  0.047481	  0.004865	
15.1028	  0.029001	  0.049257	  0.004814	
15.1361	  0.028144	  0.050036	  0.004759	
15.1694	  0.027304	  0.049523	  0.004712	
15.2026	  0.026558	  0.048342	  0.004690	
15.2359	  0.026060	  0.047010	  0.004697	
15.2692	  0.025961	  0.045946	  0.004714	
15.3024	  0.026166	  0.045364	  0.004729	
15.3357	  0.026607	  0.045322	  0.004742	
15.369	  0.027059	  0.045830	  0.004753	
15.4022	  0.027229	  0.046745	  0.004769	
15.4355	  0.027092	  0.047627	  0.004802	
15.4687	  0.026716	  0.048024	  0.004844	
15.502	  0.026246	  0.047776	  0.004871	
15.5353	  0.025949	  0.047098	  0.004865	
15.5685	  0.025950	  0.046260	  0.004829	
15.6018	  0.026289	  0.045548	  0.004773	
15.6351	  0.026878	  0.045097	  0.004705	
15.6683	  0.027511	  0.044849	  0.004640	
15.7016	  0.028039	  0.044702	  0.004596	
